<?xml version="1.0" encoding="utf-8"?>
<!-- Generator: Adobe Illustrator 23.0.4, SVG Export Plug-In . SVG Version: 6.00 Build 0)  -->
<svg version="1.1" id="Layer_1" focusable="false" xmlns="http://www.w3.org/2000/svg" xmlns:xlink="http://www.w3.org/1999/xlink"
	 x="0px" y="0px" viewBox="0 0 448 512" style="enable-background:new 0 0 448 512;" xml:space="preserve">
<style type="text/css">
	.st0{fill:#343334;}
</style>
<g>
	<path class="st0" d="M169.3,338c-10.9,0-21.9-9.6-27.3-13.7c-27.3-19.1-35.5-26-41-30.1v57.4c0,7.5,6.1,13.7,13.7,13.7H224
		c7.5,0,13.7-6.2,13.7-13.7v-57.4c-5.5,4.1-13.7,10.9-41,30.1C191.2,328.4,180.3,338,169.3,338z M224,256H114.7
		c-7.5,0-13.7,6.2-13.7,13.7v6.8c10.9,8.2,9.6,8.2,49.2,36.9c4.1,2.7,12.3,10.9,19.1,10.9c6.8,0,15-8.2,19.1-9.6
		c39.6-28.7,38.3-28.7,49.2-36.9v-8.2C237.7,262.2,231.5,256,224,256z M333.3,215H196.7c-7.5,0-13.7,6.1-13.7,13.7v13.7h41
		c14.2,0,25.9,10.8,27.2,24.7l0.1-0.1v57.4h82c7.5,0,13.7-6.2,13.7-13.7v-82C347,221.1,340.8,215,333.3,215z M319.7,269.7h-27.3
		v-27.3h27.3V269.7z M169.3,228.7c0-15,12.3-27.3,27.3-27.3h95.7v-41c0-7.5-6.2-13.7-13.7-13.7H142c-7.5,0-13.7,6.1-13.7,13.7v82h41
		V228.7z"/>
</g>
</svg>
