<?xml version="1.0" encoding="utf-8"?>
<!-- Generator: Adobe Illustrator 23.0.4, SVG Export Plug-In . SVG Version: 6.00 Build 0)  -->
<svg version="1.1" id="Layer_1" focusable="false" xmlns="http://www.w3.org/2000/svg" xmlns:xlink="http://www.w3.org/1999/xlink"
	 x="0px" y="0px" viewBox="0 0 448 512" style="enable-background:new 0 0 448 512;" xml:space="preserve">
<style type="text/css">
	.st0{fill:#343334;}
</style>
<path class="st0" d="M276.5,137h-105c-12.4,0-22.5,10.1-22.5,22.5v195c0,12.4,10.1,22.5,22.5,22.5h105c12.4,0,22.5-10.1,22.5-22.5
	v-195C299,147.1,288.9,137,276.5,137z M224,362c-8.3,0-15-6.7-15-15s6.7-15,15-15s15,6.7,15,15S232.3,362,224,362z M276.5,311.4
	c0,3.1-2.5,5.6-5.6,5.6h-93.8c-3.1,0-5.6-2.5-5.6-5.6V165.1c0-3.1,2.5-5.6,5.6-5.6h93.8c3.1,0,5.6,2.5,5.6,5.6V311.4z"/>
</svg>
