<?xml version="1.0" encoding="utf-8"?>
<!-- Generator: Adobe Illustrator 23.0.4, SVG Export Plug-In . SVG Version: 6.00 Build 0)  -->
<svg version="1.1" id="Layer_1" focusable="false" xmlns="http://www.w3.org/2000/svg" xmlns:xlink="http://www.w3.org/1999/xlink"
	 x="0px" y="0px" viewBox="0 0 448 512" style="enable-background:new 0 0 448 512;" xml:space="preserve">
<style type="text/css">
	.st0{fill:#343334;}
</style>
<path class="st0" d="M224,256c29,0,52.5-23.5,52.5-52.5S253,151,224,151s-52.5,23.5-52.5,52.5S195,256,224,256z M263.2,269.3
	l-19.6,78.6l-13.1-55.8l13.1-23h-39.4l13.1,23l-13.1,55.8l-19.6-78.6c-29.2,1.4-52.6,25.3-52.6,54.8v17.1c0,10.9,8.7,19.7,19.7,19.7
	h144.4c10.9,0,19.7-8.7,19.7-19.7v-17.1C315.9,294.7,292.5,270.7,263.2,269.3L263.2,269.3z"/>
</svg>
